
<svg xmlns="http://www.w3.org/2000/svg" viewBox="0 350 612 92"><path fill="#FFF" d="M74.7 350l7.5 21.6-3 1.3c-9.9-11.7-16.8-19.4-26.7-19.4-3.9 0-5.8 1.9-5.8 5.7v69.4c0 7.8 7 7.7 13.5 7.5v3.5H22v-3.5c6.1.1 13.8.4 13.8-8.8v-68.6c0-5.1-5.4-5.2-6.2-5.2-9.3 0-17.4 8.1-26.5 19.4l-3-1.3L7.5 350h67.2z"/><path fill="#FFF" d="M113.9 350v3.5c-5.5.1-10.9.7-10.9 8.3v29.6h38.6v-29c0-8.8-6.2-8.8-11.3-8.8V350h33.2v3.5c-5.2.1-10.9.6-10.9 8.3v66.1c0 8 6.1 8.1 10.9 8.3v3.5h-33.2v-3.5c4.6 0 11.3-.1 11.3-8.3v-32H103v32.8c0 7 6.2 7.2 10.9 7.4v3.5H81.2V436c4.3 0 10.9-.4 10.9-8.3v-66c0-5.2-2.6-8.3-8.3-8.3h-2.6V350h32.7zM232.2 350l7.7 21.5-3.2 1.2c-11.2-14.4-16.8-19.1-34.1-19.1-8.6 0-13 1.2-13 8.3v29.9h8c15.5 0 17.7-7.4 19-15.5h3.3v34.8h-3.3c-.4-4.8-1.3-15.7-19-15.7h-8v33.5c0 6.5 5.4 7.4 11.2 7.4 15.9 0 22.3-1.2 37.5-20.3l3 1.2-7.7 22.8h-66.8v-3.3c7.4-.1 11.7-.4 11.7-10.7v-64.1c0-8-6.1-8-11.7-8V350h65.4zM298.2 350v3.5c-4.5.1-10.3.3-10.3 5.4 0 1 .4 2.2.4 2.5l16.2 58.9h.3l15.7-54.8c-2.8-8.7-5.8-11.6-14.4-11.7V350h34.2v3.5c-3.5.1-10.7.3-10.7 5.7 0 .6.3 1.3.4 1.9l16.7 59.3h.3l14.2-52.2c.4-2 1.3-4.9 1.3-8.3 0-6.2-5.9-6.4-9.6-6.5V350h27.3v3.5c-8 .4-11 2.6-15.1 17.7L346 442.1h-3.9l-19.4-68.9h-.3L303.1 442h-3.5l-21.7-78.4c-2.6-9.6-10.1-10-12.8-10V350h33.1zM449.4 350l7.7 21.5-3.2 1.2c-11.2-14.4-16.8-19.1-34.1-19.1-8.6 0-13 1.2-13 8.3v29.9h8c15.5 0 17.7-7.4 19-15.5h3.3v34.8h-3.3c-.4-4.8-1.3-15.7-19-15.7h-8v33.5c0 6.5 5.4 7.4 11.2 7.4 15.9 0 22.3-1.2 37.5-20.3l3 1.2-7.7 22.5H384v-3.3c7.4-.1 11.7-.4 11.7-10.7v-63.8c0-8-6.1-8-11.7-8V350h65.4z"/><path fill="#FFF" d="M522 350l7.7 21.5-3.2 1.2c-11.2-14.4-16.8-19.1-34.1-19.1-8.6 0-13 1.2-13 8.3v29.9h8c15.5 0 17.7-7.4 19-15.5h3.3v34.8h-3.3c-.4-4.8-1.3-15.7-19-15.7h-8v33.5c0 6.5 5.4 7.4 11.2 7.4 15.9 0 22.3-1.2 37.5-20.3l3 1.2-7.7 22.8h-66.8v-3.3c7.4-.1 11.7-.4 11.7-10.7v-64.1c0-8-6.1-8-11.7-8V350H522z"/><path fill="#FFF" d="M562.4 350v3.5c-6.7.1-10.9.4-10.9 9.1v35.5l29.7-30.7c2.2-2.3 5.4-6.2 5.4-9.1 0-3.9-4.1-4.5-8.3-4.8V350h29.9v3.5c-5.5.3-10.9 2.2-16.5 8.1l-21.6 22 28.6 44.2c4.5 7 7.7 8 13.3 8.3v3.5h-33.6v-3.5c3-.1 9.4-.3 9.4-3.9 0-1.3-.9-2.8-1-3l-24.4-37.4-10.9 11.6v23.5c0 8.6 5.1 9.1 10.9 9.3v3.5h-32.9v-3.5c7.1-.1 11.2-.9 11.2-12v-61c0-9.1-4.8-9.4-10.7-9.6V350h32.4z"/></svg>